# xmcd
#
# Track frame offsets:
#	150
#	21215
#	36430
#	57405
#	73930
#	95615
#	115635
#	135088
#	151890
#	169738
#
# Disc length: 2586 seconds
#
# Revision: 1
# Processed by: cddbd v1.5.1PL0 Copyright (c) Steve Scherf et al.
# Submitted via: CDex 1.50Beta5
#
DISCID=800a180a
DTITLE=中村由真 - GOLD RUSH
DYEAR=1900
DGENRE=Pop
TTITLE0=瞳のInnocrnt
TTITLE1=サラディアン・エイジ
TTITLE2=はじめてのデリケ-ト
TTITLE3=天使の休日
TTITLE4=アコ-ステック・レイン
TTITLE5=シビア-
TTITLE6=膝上のAUTUMN
TTITLE7=いけない夢ばかり
TTITLE8=Snow Bunny
TTITLE9=夜明けのナイ-ブ
EXTD=
EXTT0=
EXTT1=
EXTT2=
EXTT3=
EXTT4=
EXTT5=
EXTT6=
EXTT7=
EXTT8=
EXTT9=
PLAYORDER=
